<?xml version="1.0" encoding="UTF-8" standalone="no"?>
<!DOCTYPE svg PUBLIC "-//W3C//DTD SVG 1.1//EN" "http://www.w3.org/Graphics/SVG/1.1/DTD/svg11.dtd">
<svg width="100%" height="100%" viewBox="0 0 1024 240" version="1.1" xmlns="http://www.w3.org/2000/svg" xmlns:xlink="http://www.w3.org/1999/xlink" xml:space="preserve" xmlns:serif="http://www.serif.com/" style="fill-rule:evenodd;clip-rule:evenodd;stroke-linejoin:round;stroke-miterlimit:2;">
    <g transform="matrix(1,0,0,1,-411.726,-84.5009)">
        <g transform="matrix(200,0,0,200,776.51,255.896)">
            <path d="M0.229,-0.033C0.26,-0.033 0.286,-0.036 0.309,-0.041L0.309,-0.002C0.286,0.006 0.259,0.01 0.228,0.01C0.181,0.01 0.147,-0.003 0.124,-0.028C0.102,-0.053 0.091,-0.092 0.091,-0.146L0.091,-0.489L0.012,-0.489L0.012,-0.517L0.091,-0.539L0.115,-0.659L0.14,-0.659L0.14,-0.531L0.296,-0.531L0.296,-0.489L0.14,-0.489L0.14,-0.153C0.14,-0.112 0.147,-0.082 0.162,-0.063C0.176,-0.043 0.198,-0.033 0.229,-0.033Z" style="fill:rgb(221,5,49);fill-rule:nonzero;"/>
        </g>
        <g transform="matrix(200,0,0,200,843.502,255.896)">
            <path d="M0.137,0L0.089,0L0.089,-0.531L0.137,-0.531L0.137,0ZM0.082,-0.678C0.082,-0.709 0.092,-0.725 0.113,-0.725C0.123,-0.725 0.131,-0.721 0.136,-0.713C0.142,-0.705 0.145,-0.693 0.145,-0.678C0.145,-0.664 0.142,-0.652 0.136,-0.644C0.131,-0.635 0.123,-0.631 0.113,-0.631C0.092,-0.631 0.082,-0.647 0.082,-0.678Z" style="fill:rgb(221,5,49);fill-rule:nonzero;"/>
        </g>
        <g transform="matrix(200,0,0,200,888.717,255.896)">
            <rect x="0.089" y="-0.76" width="0.048" height="0.76" style="fill:rgb(221,5,49);fill-rule:nonzero;"/>
        </g>
        <g transform="matrix(200,0,0,200,933.931,255.896)">
            <rect x="0.089" y="-0.76" width="0.048" height="0.76" style="fill:rgb(221,5,49);fill-rule:nonzero;"/>
        </g>
        <g transform="matrix(200,0,0,200,979.146,255.896)">
            <path d="M0,-0.531L0.05,-0.531L0.162,-0.233C0.196,-0.141 0.218,-0.08 0.227,-0.048L0.23,-0.048C0.244,-0.09 0.266,-0.153 0.297,-0.236L0.409,-0.531L0.459,-0.531L0.221,0.086C0.202,0.136 0.186,0.17 0.173,0.188C0.16,0.205 0.145,0.218 0.127,0.227C0.11,0.236 0.089,0.24 0.064,0.24C0.045,0.24 0.025,0.237 0.002,0.23L0.002,0.188C0.021,0.193 0.041,0.196 0.063,0.196C0.08,0.196 0.094,0.192 0.107,0.184C0.12,0.176 0.131,0.164 0.141,0.148C0.152,0.131 0.163,0.105 0.177,0.07C0.191,0.034 0.199,0.011 0.203,0L0,-0.531Z" style="fill:rgb(113,113,113);fill-rule:nonzero;"/>
        </g>
    </g>
</svg>
